<mxfile host="app.diagrams.net" modified="2023-04-17T11:15:20.838Z" agent="Mozilla/5.0 (Macintosh; Intel Mac OS X 10_15_7) AppleWebKit/537.36 (KHTML, like Gecko) Chrome/112.0.0.0 Safari/537.36" version="21.1.8" etag="TwEJDk-nM5g0p02VoIOb" type="github">
  <diagram name="Page-1" id="s9J3Q8wjo46K9H3yG-ZJ">
    <mxGraphModel>
      <root>
        <mxCell id="0" />
        <mxCell id="1" parent="0" />
      </root>
    </mxGraphModel>
  </diagram>
</mxfile>
